HIERARCHY
ROOT Hips
{
    OFFSET 0.000000 0.000000 0.000000
    CHANNELS 6 Xposition Yposition Zposition Zrotation Xrotation Yrotation
    JOINT Spine
    {
        OFFSET -0.000000 14.517291 0.000000
        CHANNELS 3 Zrotation Xrotation Yrotation
        JOINT Spine1
        {
            OFFSET -0.000000 37.558300 0.000000
            CHANNELS 3 Zrotation Xrotation Yrotation
            JOINT Neck
            {
                OFFSET -0.000000 37.404057 3.400369
                CHANNELS 3 Zrotation Xrotation Yrotation
                JOINT Head
                {
                    OFFSET -0.000000 24.785618 -3.540803
                    CHANNELS 3 Zrotation Xrotation Yrotation
                    End Site
                    {
                        OFFSET -0.000000 35.408028 0.000000
                    }
                }
            }
            JOINT LeftShoulder
            {
                OFFSET 6.992933 33.973492 -0.192664
                CHANNELS 3 Zrotation Xrotation Yrotation
                JOINT LeftArm
                {
                    OFFSET 21.527611 0.000000 0.000000
                    CHANNELS 3 Zrotation Xrotation Yrotation
                    JOINT LeftForeArm
                    {
                        OFFSET 56.353916 0.000000 0.000000
                        CHANNELS 3 Zrotation Xrotation Yrotation
                        JOINT LeftHand
                        {
                            OFFSET 47.774071 0.000000 0.000000
                            CHANNELS 3 Zrotation Xrotation Yrotation
                            End Site
                            {
                                OFFSET 26.556021 0.000000 0.000000
                            }
                        }
                    }
                }
            }
            JOINT RightShoulder
            {
                OFFSET -7.065357 33.973492 -0.192664
                CHANNELS 3 Zrotation Xrotation Yrotation
                JOINT RightArm
                {
                    OFFSET -21.527611 0.000000 0.000000
                    CHANNELS 3 Zrotation Xrotation Yrotation
                    JOINT RightForeArm
                    {
                        OFFSET -56.353916 0.000000 0.000000
                        CHANNELS 3 Zrotation Xrotation Yrotation
                        JOINT RightHand
                        {
                            OFFSET -47.774071 0.000000 0.000000
                            CHANNELS 3 Zrotation Xrotation Yrotation
                            End Site
                            {
                                OFFSET -26.556021 0.000000 0.000000
                            }
                        }
                    }
                }
            }
        }
    }
    JOINT LeftUpLeg
    {
        OFFSET 17.704014 0.000000 0.000000
        CHANNELS 3 Zrotation Xrotation Yrotation
        JOINT LeftLeg
        {
            OFFSET -0.000000 -81.181816 0.000000
            CHANNELS 3 Zrotation Xrotation Yrotation
            JOINT LeftFoot
            {
                OFFSET -0.000000 -62.821102 0.000000
                CHANNELS 3 Zrotation Xrotation Yrotation
                JOINT LeftToeBase
                {
                    OFFSET -0.000000 -11.507608 26.556021
                    CHANNELS 3 Zrotation Xrotation Yrotation
                    End Site
                    {
                        OFFSET -0.000000 0.000000 7.081605
                    }
                }
            }
        }
    }
    JOINT RightUpLeg
    {
        OFFSET -17.704014 0.000000 0.000000
        CHANNELS 3 Zrotation Xrotation Yrotation
        JOINT RightLeg
        {
            OFFSET -0.000000 -81.181816 0.000000
            CHANNELS 3 Zrotation Xrotation Yrotation
            JOINT RightFoot
            {
                OFFSET -0.000000 -62.821102 0.000000
                CHANNELS 3 Zrotation Xrotation Yrotation
                JOINT RightToeBase
                {
                    OFFSET -0.000000 -11.507608 26.556021
                    CHANNELS 3 Zrotation Xrotation Yrotation
                    End Site
                    {
                        OFFSET -0.000000 0.000000 7.081605
                    }
                }
            }
        }
    }
}
MOTION
Frames:    4
Frame Time:    0.008333
11.598918    156.423431    -135.813431    -1.115774    -3.227794    36.977039    -0.516211    -1.953889    -0.450172    -4.926557    3.954901    0.021709    6.636986    2.430269    -17.855326    12.712779    0.262691    -17.719988    6.262056    9.068500    -17.580696    -35.348804    22.283659    -47.060875    -8.002135    -7.847541    -117.973152    3.326732    -20.942591    -5.465283    -14.993004    -4.056504    -7.104639    19.486885    -21.966232    51.022514    -11.768789    -12.970884    49.762058    1.649558    -7.091940    33.129990    2.996346    -10.979172    -14.872761    -15.399345    38.085964    -21.670868    17.972645    -17.400137    47.426052    0.000000    0.000000    0.000000    -12.681950    -21.288424    -0.293172    4.382009    14.897573    -2.372902    9.649460    0.166836    -9.433566    0.000000    0.000000    0.000000    
11.606062    156.418991    -135.916107    -1.129437    -3.217417    36.786812    -0.476378    -1.969488    -0.384276    -4.956519    3.946091    0.044139    6.641189    2.409319    -17.837376    12.664913    0.277952    -17.711065    6.238908    9.066237    -17.533056    -35.389378    22.292833    -47.032539    -8.025080    -7.770803    -117.981018    3.325518    -20.908072    -5.449417    -14.993588    -4.048291    -7.079465    19.479254    -22.037516    51.103905    -12.220901    -12.177687    49.567646    0.159440    -6.541733    31.454056    2.999378    -10.984829    -14.795458    -15.446349    38.054226    -21.607082    17.999557    -17.387434    47.475487    0.000000    0.000000    0.000000    -12.788257    -21.254135    -0.971916    4.473321    14.811466    -2.675856    9.132937    0.215362    -9.743886    0.000000    0.000000    0.000000    
11.616909    156.418350    -136.007156    -1.137917    -3.208220    36.600391    -0.428223    -1.977559    -0.314288    -5.003329    3.924860    0.067905    6.629631    2.387619    -17.821949    12.648251    0.303624    -17.699738    6.226062    9.063822    -17.492092    -35.438084    22.296400    -46.996552    -8.072334    -7.656833    -117.991440    3.376495    -20.880426    -5.448504    -14.916632    -3.866415    -7.022925    19.366220    -22.167414    51.121483    -12.314460    -12.295260    49.554234    0.152307    -6.621439    31.496874    3.000684    -10.980610    -14.721317    -15.498014    38.011665    -21.508314    18.028217    -17.358139    47.500778    0.000000    0.000000    0.000000    -12.894890    -21.222982    -1.688296    4.558609    14.776497    -2.955080    8.683718    0.213602    -10.093266    0.000000    0.000000    0.000000    
11.630762    156.417252    -136.094162    -1.141132    -3.202725    36.418671    -0.384446    -1.983840    -0.239529    -5.038192    3.912260    0.092959    6.601572    2.361782    -17.820921    12.639037    0.338789    -17.701693    6.212825    9.066983    -17.461380    -35.478401    22.302050    -46.975903    -8.107391    -7.573480    -117.991005    3.370942    -20.856642    -5.443916    -14.998896    -4.068273    -7.064160    19.484585    -22.022537    51.145065    -12.285294    -12.205075    49.560146    0.102114    -6.556612    31.513952    2.993609    -10.969104    -14.640752    -15.520406    37.974758    -21.424070    18.046663    -17.342934    47.508846    0.000000    0.000000    0.000000    -13.035262    -21.115938    -2.260356    4.743008    14.569360    -3.303593    8.133929    0.343135    -10.557357    0.000000    0.000000    0.000000    
